<?xml version="1.0" standalone="no"?>
<!DOCTYPE svg PUBLIC "-//W3C//DTD SVG 20010904//EN"
 "http://www.w3.org/TR/2001/REC-SVG-20010904/DTD/svg10.dtd">
<svg version="1.0" xmlns="http://www.w3.org/2000/svg"
 width="700.000000pt" height="700.000000pt" viewBox="0 0 700.000000 700.000000"
 preserveAspectRatio="xMidYMid meet">
<metadata>
Created by potrace 1.11, written by Peter Selinger 2001-2013
</metadata>
<g transform="translate(0.000000,700.000000) scale(0.100000,-0.100000)"
fill="#000000" stroke="none">
<path d="M3420 6928 c-30 -35 -61 -70 -69 -79 -9 -9 -36 -40 -61 -69 -25 -29
-52 -61 -60 -70 -8 -10 -37 -44 -65 -76 -48 -56 -239 -277 -294 -339 -14 -16
-85 -97 -156 -180 -222 -258 -379 -440 -390 -451 -5 -6 -31 -35 -56 -65 -142
-166 -192 -225 -198 -229 -3 -3 -31 -34 -61 -70 -30 -36 -57 -67 -60 -70 -3
-3 -16 -17 -28 -32 l-24 -26 98 -319 c91 -297 118 -387 164 -538 10 -33 41
-136 70 -230 29 -93 70 -226 91 -295 21 -69 65 -213 98 -320 32 -107 83 -271
111 -365 28 -93 74 -242 102 -330 28 -88 52 -169 55 -180 3 -11 18 -60 33
-110 15 -49 74 -241 130 -425 112 -368 282 -923 335 -1095 19 -60 50 -162 69
-225 93 -309 215 -703 219 -706 3 -4 54 155 92 286 7 25 83 279 170 565 86
286 266 885 400 1330 230 765 414 1375 632 2095 229 762 253 842 253 855 0 5
-35 51 -78 101 -42 50 -122 144 -177 209 -55 65 -105 123 -110 129 -6 6 -33
38 -60 71 -28 33 -52 62 -55 65 -3 3 -30 34 -60 70 -30 35 -65 76 -77 90 -35
41 -332 390 -382 450 -25 30 -62 72 -82 95 -19 22 -98 114 -174 205 -77 91
-142 167 -145 170 -3 3 -36 42 -74 88 -38 45 -70 82 -71 82 -1 0 -26 -28 -55
-62z m259 -890 c111 -219 197 -398 192 -398 -9 0 -130 41 -176 60 -11 5 -67
25 -125 45 l-105 36 -204 -71 c-112 -38 -206 -68 -208 -66 -3 3 11 33 30 68
19 35 60 113 92 173 61 117 127 242 180 340 17 33 47 89 65 125 34 65 51 93
55 88 1 -2 93 -182 204 -400z m609 -458 c15 -19 44 -52 64 -74 20 -22 35 -42
33 -44 -5 -5 -77 20 -93 32 -8 5 -36 55 -63 110 l-50 101 41 -45 c23 -25 53
-61 68 -80z m-1605 4 c-47 -87 -62 -101 -122 -119 -19 -6 -6 14 55 84 43 51
86 100 94 110 29 36 20 13 -27 -75z m974 -183 c109 -38 227 -79 263 -91 77
-27 92 -37 86 -59 -3 -9 -8 -38 -12 -66 -3 -27 -8 -57 -9 -66 -2 -9 -6 -40
-10 -69 -4 -29 -8 -61 -10 -70 -2 -9 -6 -41 -10 -71 -3 -30 -10 -76 -15 -104
-5 -27 -12 -72 -15 -100 -3 -27 -8 -61 -10 -75 -8 -57 -36 -247 -40 -275 -2
-16 -11 -79 -20 -140 -9 -60 -19 -123 -21 -140 -2 -16 -6 -48 -9 -70 -4 -22
-8 -51 -10 -65 -2 -14 -6 -45 -10 -70 -4 -25 -8 -56 -10 -70 -2 -14 -6 -45
-10 -70 -17 -114 -25 -173 -30 -212 -2 -18 -7 -51 -10 -73 -7 -45 -7 -44 -30
-205 -9 -63 -18 -126 -20 -140 -2 -14 -13 -90 -25 -170 -23 -161 -29 -203 -35
-240 -2 -14 -6 -47 -10 -75 -3 -27 -8 -57 -10 -65 -2 -8 -7 -35 -9 -60 -6 -47
-8 -57 -27 -193 -6 -45 -13 -91 -14 -102 -2 -11 -5 -36 -8 -55 -3 -19 -8 -55
-12 -80 -3 -25 -8 -56 -10 -70 -24 -153 -57 -390 -57 -408 -1 -62 -18 10 -42
178 -15 102 -29 196 -32 210 -5 31 -24 153 -30 200 -2 19 -9 60 -14 90 -5 30
-12 75 -15 100 -3 25 -10 70 -15 100 -5 30 -12 73 -15 95 -2 22 -6 49 -9 60
-2 11 -7 42 -10 68 -4 27 -9 59 -12 70 -2 12 -6 42 -9 67 -3 25 -10 72 -15
105 -13 85 -48 312 -55 360 -3 23 -7 52 -10 65 -3 14 -7 43 -10 65 -2 22 -14
101 -25 175 -12 74 -24 153 -26 175 -3 22 -7 47 -9 55 -3 8 -7 38 -10 65 -3
28 -8 57 -10 65 -2 8 -7 38 -10 65 -8 59 -12 91 -25 165 -8 46 -32 206 -45
300 -8 55 -25 166 -29 190 -3 14 -10 61 -16 105 -12 82 -15 107 -24 160 -3 17
-8 50 -11 75 -3 25 -8 52 -10 60 -2 8 -6 36 -10 62 -3 26 -9 68 -14 93 -9 51
-7 54 59 73 30 9 120 40 420 147 36 13 66 23 67 24 0 1 90 -30 200 -68z m968
-339 c28 -8 51 -16 52 -17 2 -1 -60 -209 -217 -730 -61 -203 -129 -428 -150
-500 -42 -140 -231 -771 -254 -845 -22 -71 -72 -236 -106 -350 -17 -58 -33
-109 -35 -115 -9 -26 -3 36 15 167 11 79 23 159 25 178 3 20 7 45 9 55 2 11 7
47 11 80 3 32 8 62 10 65 2 3 6 30 9 60 3 30 8 64 10 76 2 12 7 45 11 74 4 29
8 62 11 73 2 11 6 43 9 70 3 28 7 53 9 56 2 3 7 37 11 76 4 38 8 72 10 75 2 3
6 30 9 60 3 30 8 64 10 76 2 12 7 45 11 75 3 30 8 61 10 69 2 8 7 40 10 70 3
30 8 62 10 70 2 8 6 38 10 65 3 28 12 91 20 140 7 50 16 113 20 140 3 28 10
75 15 105 5 30 12 75 15 100 3 25 8 56 10 70 3 14 7 45 10 70 3 25 7 56 10 70
2 14 7 45 10 70 3 25 8 56 10 70 7 36 13 77 21 140 4 30 8 64 10 75 1 11 3 23
3 27 1 4 65 -16 144 -43 78 -28 165 -58 192 -67z m-1979 -42 c12 -80 31 -210
43 -290 12 -80 24 -161 27 -180 3 -19 11 -75 19 -125 8 -49 17 -110 21 -135 3
-25 7 -52 9 -60 1 -8 6 -37 9 -63 4 -27 9 -56 10 -65 2 -10 7 -39 10 -65 4
-27 9 -56 11 -65 1 -10 6 -39 9 -67 4 -27 18 -122 31 -210 14 -88 27 -176 30
-195 3 -19 10 -62 15 -95 5 -33 12 -77 15 -97 5 -41 12 -85 20 -145 3 -21 8
-49 10 -63 3 -14 7 -43 10 -65 6 -44 13 -89 19 -120 2 -11 7 -42 10 -70 4 -27
9 -61 11 -75 3 -14 7 -43 10 -65 3 -22 7 -49 9 -60 29 -176 15 -134 -284 845
-21 69 -75 244 -120 390 -45 146 -86 279 -90 295 -5 17 -17 59 -29 95 -11 36
-33 110 -50 165 -16 55 -64 210 -105 345 -42 135 -76 250 -76 255 0 11 336
134 360 131 11 -1 20 -37 36 -146z"/>
</g>
</svg>
